<?xml version="1.0" encoding="UTF-8" standalone="no" ?>
<!DOCTYPE svg PUBLIC "-//W3C//DTD SVG 1.1//EN" "http://www.w3.org/Graphics/SVG/1.1/DTD/svg11.dtd">
<svg xmlns="http://www.w3.org/2000/svg" xmlns:xlink="http://www.w3.org/1999/xlink" version="1.1" width="1280" height="1024" viewBox="0 0 1280 1024" xml:space="preserve">
<desc>Created with Fabric.js 5.3.0</desc>
<defs>
</defs>
<g transform="matrix(1 0 0 1 640 512)" id="background-logo"  >
<rect style="stroke: none; stroke-width: 0; stroke-dasharray: none; stroke-linecap: butt; stroke-dashoffset: 0; stroke-linejoin: miter; stroke-miterlimit: 4; fill: rgb(255,255,255); fill-opacity: 0; fill-rule: nonzero; opacity: 1;"  paint-order="stroke"  x="-640" y="-512" rx="0" ry="0" width="1280" height="1024" />
</g>
<g transform="matrix(1.9211538461538462 0 0 1.9211538461538462 620.7884615384615 391.9643483655177)" id="logo-logo"  >
<g style=""  paint-order="stroke"   >
		<g transform="matrix(1.0045875257620291 0 0 1.0045875257620291 0 2.842171e-14)"  >
<g style=""  paint-order="stroke"   >
		<g transform="matrix(1 0 0 1 0 0)"  >
<linearGradient id="SVGID_2_30420" gradientUnits="userSpaceOnUse" gradientTransform="matrix(1 0 0 1 0.04502624017267465 0)"  x1="0" y1="0" x2="0" y2="200">
<stop offset="0%" style="stop-color:rgb(91,36,122);stop-opacity: 1"/>
<stop offset="100%" style="stop-color:rgb(27,206,223);stop-opacity: 1"/>
</linearGradient>
<path style="stroke: none; stroke-width: 1; stroke-dasharray: none; stroke-linecap: butt; stroke-dashoffset: 0; stroke-linejoin: miter; stroke-miterlimit: 4; fill: url(#SVGID_2_30420); fill-rule: nonzero; opacity: 1;"  paint-order="stroke"  transform=" translate(-88.52251312008632, -99.98645293750333)" d="M 112.09 191.37 C 135.9117490394676 191.40289133956588 158.9506802854889 182.86666739153304 176.99999999999994 167.32000000000002 C 147.7179015429597 198.87132642292275 101.79417391434797 208.67073452469424 62.18382600148399 191.81998298906535 C 22.57347808862002 174.96923145343652 -2.2153738259665374 135.08778239239209 0.20799604130064608 92.11040732620118 C 2.6313659085678296 49.13303226001028 31.74642911720025 12.291069054864465 72.99999999999994 0 C 29.42401103025805 18.558548374292283 4.926882766681885 65.22047405121893 14.396470202688924 111.6275149636046 C 23.866057638695963 158.03455587599026 64.6866541643586 191.36807504709162 112.05000000000007 191.37 Z" stroke-linecap="round" />
</g>
</g>
</g>
</g>
</g>
<g transform="matrix(1.9211538461538462 0 0 1.9211538461538462 640.0662798076922 702.2083374050032)" id="text-logo"  >
<g style=""  paint-order="stroke"   >
		<g transform="matrix(1 0 0 1 0 0)" id="text-logo-path-0"  >
<path style="stroke: none; stroke-width: 0.7278495639913387; stroke-dasharray: none; stroke-linecap: butt; stroke-dashoffset: 0; stroke-linejoin: miter; stroke-miterlimit: 4; fill: rgb(65,103,162); fill-rule: nonzero; opacity: 1;"  paint-order="stroke"  transform=" translate(-225.665, 18.39)" d="M 24.77 0.62 C 31.6 0.62 36.57 -1.66 41.47 -7.45 L 38.71 -10.28 C 35.33 -4.69 30.29 -1.31 24.77 -1.31 C 14.63 -1.31 7.18 -10.42 7.18 -24.15 C 7.18 -36.98 14.49 -47.06 24.77 -47.06 C 30.64 -47.06 34.91 -44.44 38.71 -38.02 L 41.47 -40.85 C 37.19 -45.95 31.26 -48.92 24.77 -48.92 C 11.73 -48.92 2.07 -38.99 2.07 -24.15 C 2.07 -10.21 11.45 0.62 24.77 0.62 Z M 42.85 0 L 44.78 0 L 49.82 -16.7 L 67.21 -16.7 L 72.31 0 L 77.42 0 L 62.65 -48.3 L 57.55 -48.3 Z M 66.65 -18.56 L 50.44 -18.56 L 58.51 -45.13 Z M 80.04 -14.97 L 78.11 -14.97 C 78.45 -5.59 87.22 0.35 95.98 0.35 C 103.09 0.35 110.81 -3.17 113.09 -10.42 C 113.99 -13.25 114.06 -16.21 113.02 -19.18 C 111.02 -24.91 105.29 -27.26 100.12 -29.26 C 97.77 -30.15 95.5 -30.98 93.5 -32.02 C 92.46 -32.57 91.56 -32.98 90.73 -33.53 C 89.42 -34.43 88.32 -35.95 88.18 -37.61 C 88.11 -38.43 88.18 -39.33 88.39 -40.23 C 89.29 -44.23 93.22 -46.71 97.15 -46.71 C 99.7 -46.71 102.33 -45.68 104.19 -43.88 C 105.85 -42.3 106.74 -40.09 106.61 -37.88 L 108.47 -37.88 C 108.05 -44.57 101.91 -48.65 95.7 -48.65 C 89.29 -48.65 83.01 -44.02 83.01 -37.33 C 83.01 -32.43 87.01 -28.84 91.29 -27.19 L 98.33 -24.5 C 101.98 -23.05 106.47 -21.18 108.05 -17.32 C 108.67 -15.73 108.81 -13.59 108.47 -11.66 C 107.3 -5.24 100.67 -1.59 94.67 -1.59 C 89.56 -1.59 84.46 -4 81.7 -8.42 C 80.45 -10.42 79.9 -12.7 80.04 -14.97 Z M 115.16 0 L 117.09 0 L 122.13 -16.7 L 139.52 -16.7 L 144.62 0 L 149.73 0 L 134.96 -48.3 L 129.86 -48.3 Z M 138.97 -18.56 L 122.75 -18.56 L 130.82 -45.13 Z M 179.61 0 L 184.71 0 L 184.71 -14.56 L 196.86 -14.56 C 206.17 -14.56 213.69 -22.15 213.69 -31.46 C 213.69 -40.78 206.17 -48.3 196.86 -48.3 L 179.61 -48.3 Z M 193.61 -16.49 L 184.71 -16.49 L 184.71 -46.37 L 193.61 -46.37 C 201.89 -46.37 208.59 -39.68 208.59 -31.46 C 208.59 -23.18 201.89 -16.49 193.61 -16.49 Z M 244.54 -1.93 L 222.94 -1.93 L 222.94 -48.3 L 217.83 -48.3 L 217.83 0 L 244.54 0 Z M 253.78 -1.93 L 253.78 -23.18 L 271.79 -23.18 L 271.79 -25.12 L 253.78 -25.12 L 253.78 -46.37 L 276.76 -46.37 L 276.76 -48.3 L 248.68 -48.3 L 248.68 0 L 276.76 0 L 276.76 -1.93 Z M 298.15 -48.3 L 280.9 -48.3 L 280.9 0 L 286 0 L 286 -14.56 L 292.15 -14.56 C 295.32 -14.15 298.08 -12.63 300.5 -10.7 C 304.36 -7.59 307.46 -3.66 311.26 0 C 314.99 3.59 318.78 7.45 323.89 10.07 C 326.37 11.32 329.27 12.14 332.17 12.14 C 335.13 12.14 337.89 11.25 340.24 9.87 L 339.48 8.07 C 337.75 8.56 336.03 8.83 334.37 8.83 C 328.85 8.83 324.23 5.31 320.3 1.73 C 318.44 0 316.64 -1.79 314.85 -3.66 C 310.64 -8 305.19 -12.42 299.46 -14.63 C 308.15 -15.32 314.99 -22.56 314.99 -31.46 C 314.99 -40.78 307.46 -48.3 298.15 -48.3 Z M 294.91 -16.49 L 286 -16.49 L 286 -46.37 L 294.91 -46.37 C 303.19 -46.37 309.88 -39.68 309.88 -31.46 C 309.88 -23.18 303.19 -16.49 294.91 -16.49 Z M 318.71 -24.15 C 318.71 -10.83 328.92 0.62 341.41 0.62 C 353.97 0.62 364.18 -10.83 364.18 -24.15 C 364.18 -37.47 353.97 -48.92 341.41 -48.92 C 328.85 -48.92 318.71 -37.47 318.71 -24.15 Z M 341.41 -47.06 C 351.14 -47.06 359.08 -36.43 359.08 -24.15 C 359.08 -11.87 351.14 -1.31 341.41 -1.31 C 331.68 -1.31 323.82 -11.87 323.82 -24.15 C 323.82 -36.43 331.68 -47.06 341.41 -47.06 Z M 374.05 -48.3 L 368.32 -48.3 L 368.32 0 L 370.25 0 L 370.25 -43.13 L 386.26 0 L 391.99 0 L 405.44 -42.3 L 405.44 0 L 410.55 0 L 410.55 -48.3 L 405.44 -48.3 L 390.95 -2.76 Z M 414.69 0 L 416.62 0 L 421.66 -16.7 L 439.05 -16.7 L 444.15 0 L 449.26 0 L 434.49 -48.3 L 429.39 -48.3 Z M 438.5 -18.56 L 422.28 -18.56 L 430.35 -45.13 Z" stroke-linecap="round" />
</g>
</g>
</g>
<g transform="matrix(1.9211538461538462 0 0 1.9211538461538462 640.1066240384614 384.3172723270562)" id="tagline-d3f01c9a-824c-4986-a818-082838c18832-logo"  >
<g style=""  paint-order="stroke"   >
		<g transform="matrix(1 0 0 1 0 0)" id="tagline-d3f01c9a-824c-4986-a818-082838c18832-logo-path-0"  >
<linearGradient id="SVGID_30421" gradientUnits="userSpaceOnUse" gradientTransform="matrix(1 0 0 1 3.3299999999999983 -78.7)"  x1="-3.385499153137175" y1="-18.88554000000002" x2="-3.385499153137175" y2="106.11445999999998">
<stop offset="0%" style="stop-color:rgb(91,36,122);stop-opacity: 1"/>
<stop offset="100%" style="stop-color:rgb(27,206,223);stop-opacity: 1"/>
</linearGradient>
<path style="stroke: none; stroke-width: 0; stroke-dasharray: none; stroke-linecap: butt; stroke-dashoffset: 0; stroke-linejoin: miter; stroke-miterlimit: 4; fill: url(#SVGID_30421); fill-rule: nonzero; opacity: 1;"  paint-order="stroke"  transform=" translate(-35.019999999999996, 38.85)" d="M 39.85 1 C 50.84 1 58.83 -2.66 66.71 -11.99 L 62.27 -16.54 C 56.83 -7.55 48.73 -2.11 39.85 -2.11 C 23.53 -2.11 11.54 -16.76 11.54 -38.85 C 11.54 -59.5 23.31 -75.7 39.85 -75.7 C 49.28 -75.7 56.17 -71.48 62.27 -61.16 L 66.71 -65.71 C 59.83 -73.93 50.28 -78.7 39.85 -78.7 C 18.87 -78.7 3.33 -62.72 3.33 -38.85 C 3.33 -16.43 18.43 1 39.85 1 Z" stroke-linecap="round" />
</g>
</g>
</g>
<g transform="matrix(1.9211538461538462 0 0 1.9211538461538462 639.9001 788.815239295303)" id="tagline-5c738b89-07a3-4351-9a2d-505579ae2938-logo"  >
<g style=""  paint-order="stroke"   >
		<g transform="matrix(1 0 0 1 0 0)" id="tagline-5c738b89-07a3-4351-9a2d-505579ae2938-logo-path-0"  >
<path style="stroke: none; stroke-width: 0; stroke-dasharray: none; stroke-linecap: butt; stroke-dashoffset: 0; stroke-linejoin: miter; stroke-miterlimit: 4; fill: rgb(80,63,138); fill-rule: nonzero; opacity: 1;"  paint-order="stroke"  transform=" translate(-244.81500000000003, 6.93)" d="M 2.24 -11.15 L 1.28 -11.15 L 1.28 0 L 2.24 0 Z M 11.17 -11.31 L 11.17 0 L 11.81 0 L 11.81 -8.72 L 18.5 0.16 L 18.5 -11.15 L 17.86 -11.15 L 17.86 -2.43 Z M 32.62 0.16 C 35.76 0.16 38.35 -2.45 38.35 -5.6 L 32.85 -5.6 L 32.85 -4.96 L 37.49 -4.96 C 37.41 -2.42 35.49 -0.48 33.06 -0.48 C 30.4 -0.48 28 -2.78 27.74 -5.6 C 27.5 -8.38 29.5 -10.67 32.18 -10.67 C 33.5 -10.67 34.82 -10.1 35.84 -9.07 L 37.15 -9.07 C 36.06 -10.48 34.38 -11.31 32.62 -11.31 C 29.47 -11.31 26.88 -8.74 26.88 -5.6 C 26.88 -2.43 29.47 0.16 32.62 0.16 Z M 46.58 -11.15 L 46.58 0 L 53.31 0 L 53.31 -0.64 L 47.54 -0.64 L 47.54 -6.05 L 52.53 -6.05 L 52.53 -6.69 L 47.54 -6.69 L 47.54 -10.51 L 53.31 -10.51 L 53.31 -11.15 Z M 61.49 -11.31 L 61.49 0 L 62.13 0 L 62.13 -8.72 L 68.82 0.16 L 68.82 -11.15 L 68.18 -11.15 L 68.18 -2.43 Z M 78.72 -11.15 L 77.76 -11.15 L 77.76 0 L 78.72 0 Z M 92.83 0.16 C 95.97 0.16 98.56 -2.43 98.56 -5.6 C 98.56 -8.72 95.97 -11.31 92.83 -11.31 C 89.66 -11.31 87.09 -8.72 87.09 -5.6 C 87.09 -2.43 89.66 0.16 92.83 0.16 Z M 93.26 -0.48 C 90.59 -0.48 88.21 -2.78 87.95 -5.6 C 87.71 -8.37 89.7 -10.67 92.38 -10.67 C 95.04 -10.67 97.44 -8.37 97.68 -5.6 C 97.94 -2.78 95.94 -0.48 93.26 -0.48 Z M 122.29 -5.52 L 126.4 -11.15 L 125.55 -11.15 L 121.9 -6.16 L 118.43 -11.15 L 117.26 -11.15 L 121.33 -5.34 L 121.33 0.02 L 122.29 0.02 Z M 144.53 -11.15 L 144.53 -10.51 L 147.71 -10.51 L 147.71 0 L 148.67 0 L 148.67 -10.51 L 151.86 -10.51 L 151.86 -11.15 Z M 159.68 -11.15 L 159.68 0 L 166.42 0 L 166.42 -0.64 L 160.64 -0.64 L 160.64 -6.05 L 165.63 -6.05 L 165.63 -6.69 L 160.64 -6.69 L 160.64 -10.51 L 166.42 -10.51 L 166.42 -11.15 Z M 179.54 0.16 C 181.62 0.16 183.47 -0.99 184.46 -2.67 L 183.78 -2.67 C 183.01 -1.36 181.62 -0.48 179.97 -0.48 C 177.3 -0.48 174.91 -2.78 174.66 -5.6 C 174.42 -8.37 176.4 -10.67 179.09 -10.67 C 180.46 -10.67 181.78 -10.05 182.75 -9.07 L 184.06 -9.07 C 183.02 -10.42 181.36 -11.31 179.54 -11.31 C 176.37 -11.31 173.79 -8.72 173.79 -5.6 C 173.79 -2.43 176.37 0.16 179.54 0.16 Z M 192.58 -11.31 L 192.58 0 L 193.22 0 L 193.22 -8.72 L 199.9 0.16 L 199.9 -11.15 L 199.26 -11.15 L 199.26 -2.43 Z M 214.03 0.16 C 217.17 0.16 219.76 -2.43 219.76 -5.6 C 219.76 -8.72 217.17 -11.31 214.03 -11.31 C 210.86 -11.31 208.29 -8.72 208.29 -5.6 C 208.29 -2.43 210.86 0.16 214.03 0.16 Z M 214.46 -0.48 C 211.79 -0.48 209.41 -2.78 209.15 -5.6 C 208.91 -8.37 210.9 -10.67 213.58 -10.67 C 216.24 -10.67 218.64 -8.37 218.88 -5.6 C 219.14 -2.78 217.14 -0.48 214.46 -0.48 Z M 228.13 -11.15 L 228.13 0 L 234.86 0 L 234.86 -0.64 L 229.09 -0.64 L 229.09 -11.15 Z M 246.66 0.16 C 249.79 0.16 252.38 -2.43 252.38 -5.6 C 252.38 -8.72 249.79 -11.31 246.66 -11.31 C 243.49 -11.31 240.91 -8.72 240.91 -5.6 C 240.91 -2.43 243.49 0.16 246.66 0.16 Z M 247.09 -0.48 C 244.42 -0.48 242.03 -2.78 241.78 -5.6 C 241.54 -8.37 243.52 -10.67 246.21 -10.67 C 248.86 -10.67 251.26 -8.37 251.5 -5.6 C 251.76 -2.78 249.76 -0.48 247.09 -0.48 Z M 265.95 0.16 C 269.09 0.16 271.68 -2.45 271.68 -5.6 L 266.18 -5.6 L 266.18 -4.96 L 270.82 -4.96 C 270.74 -2.42 268.82 -0.48 266.38 -0.48 C 263.73 -0.48 261.33 -2.78 261.07 -5.6 C 260.83 -8.38 262.83 -10.67 265.5 -10.67 C 266.83 -10.67 268.14 -10.1 269.17 -9.07 L 270.48 -9.07 C 269.39 -10.48 267.71 -11.31 265.95 -11.31 C 262.8 -11.31 260.21 -8.74 260.21 -5.6 C 260.21 -2.43 262.8 0.16 265.95 0.16 Z M 280.86 -11.15 L 279.9 -11.15 L 279.9 0 L 280.86 0 Z M 279.87 -12 L 281.9 -14.02 L 280.74 -14.02 L 278.86 -12 Z M 297.12 -5.58 L 297.12 0 L 298.08 0 L 298.08 -11.31 L 288.64 0 L 289.47 0 L 294.13 -5.58 Z M 297.12 -6.21 L 294.66 -6.21 L 297.12 -9.18 Z M 322.54 -11.15 L 318.43 -11.15 L 318.43 0 L 319.39 0 L 319.39 -4.46 L 322.54 -4.46 C 324.4 -4.46 325.89 -5.95 325.89 -7.82 C 325.89 -9.68 324.4 -11.15 322.54 -11.15 Z M 322.54 -5.1 L 319.39 -5.1 L 319.39 -10.51 L 322.54 -10.51 C 323.82 -10.51 324.85 -9.33 324.85 -7.82 C 324.85 -6.29 323.82 -5.1 322.54 -5.1 Z M 339.66 -5.58 L 339.66 0 L 340.62 0 L 340.62 -11.31 L 331.18 0 L 332.02 0 L 336.67 -5.58 Z M 339.66 -6.21 L 337.2 -6.21 L 339.66 -9.18 Z M 353.65 -11.15 L 349.54 -11.15 L 349.54 0 L 350.5 0 L 350.5 -10.51 L 353.65 -10.51 C 354.93 -10.51 355.95 -9.33 355.95 -7.82 C 355.95 -6.29 354.93 -5.1 353.65 -5.1 L 350.96 -5.1 L 355.9 0 L 357.1 0 L 352.77 -4.46 L 353.65 -4.46 C 355.5 -4.46 356.99 -5.95 356.99 -7.82 C 356.99 -9.68 355.5 -11.15 353.65 -11.15 Z M 372.77 -5.58 L 372.77 0 L 373.73 0 L 373.73 -11.31 L 364.29 0 L 365.12 0 L 369.78 -5.58 Z M 372.77 -6.21 L 370.3 -6.21 L 372.77 -9.18 Z M 394.06 -11.15 L 394.06 0 L 400.8 0 L 400.8 -0.64 L 395.02 -0.64 L 395.02 -11.15 Z M 415.98 -5.58 L 415.98 0 L 416.94 0 L 416.94 -11.31 L 407.5 0 L 408.34 0 L 412.99 -5.58 Z M 415.98 -6.21 L 413.52 -6.21 L 415.98 -9.18 Z M 438.26 -1.98 L 438.26 -11.15 L 437.3 -11.15 L 437.3 0.16 L 446.74 -11.15 L 445.9 -11.15 Z M 455.49 -11.15 L 454.53 -11.15 L 454.53 0 L 455.49 0 Z M 467.33 -11.15 L 464.42 -11.15 L 464.42 0 L 467.33 0 C 470.42 0 472.9 -2.48 472.9 -5.62 C 472.9 -8.67 470.42 -11.15 467.33 -11.15 Z M 467.33 -0.64 L 465.38 -0.64 L 465.38 -10.51 L 467.33 -10.51 C 469.84 -10.51 471.86 -8.32 471.86 -5.62 C 471.86 -2.83 469.84 -0.64 467.33 -0.64 Z M 487.39 -5.58 L 487.39 0 L 488.35 0 L 488.35 -11.31 L 478.91 0 L 479.74 0 L 484.4 -5.58 Z M 487.39 -6.21 L 484.93 -6.21 L 487.39 -9.18 Z" stroke-linecap="round" />
</g>
</g>
</g>
<g transform="matrix(1.9211538461538462 0 0 1.9211538461538462 700.3289476493788 444.7528440148965)" id="tagline-ee2c5fb3-0252-4d5c-ad4b-a631387b07d3-logo"  >
<g style=""  paint-order="stroke"   >
		<g transform="matrix(1 0 0 1 0 0)" id="tagline-ee2c5fb3-0252-4d5c-ad4b-a631387b07d3-logo-path-0"  >
<linearGradient id="SVGID_30422" gradientUnits="userSpaceOnUse" gradientTransform="matrix(1 0 0 1 3.3299999999999983 -77.7)"  x1="-3.274500846862793" y1="-19.884540000000015" x2="-3.274500846862793" y2="105.11545999999998">
<stop offset="0%" style="stop-color:rgb(91,36,122);stop-opacity: 1"/>
<stop offset="100%" style="stop-color:rgb(27,206,223);stop-opacity: 1"/>
</linearGradient>
<path style="stroke: none; stroke-width: 0; stroke-dasharray: none; stroke-linecap: butt; stroke-dashoffset: 0; stroke-linejoin: miter; stroke-miterlimit: 4; fill: url(#SVGID_30422); fill-rule: nonzero; opacity: 1;"  paint-order="stroke"  transform=" translate(-30.744999999999997, 38.85)" d="M 3.33 0 L 11.54 0 L 11.54 -23.42 L 31.08 -23.42 C 46.06 -23.42 58.16 -35.63 58.16 -50.62 C 58.16 -65.6 46.06 -77.7 31.08 -77.7 L 3.33 -77.7 Z M 25.86 -26.53 L 11.54 -26.53 L 11.54 -74.59 L 25.86 -74.59 C 39.18 -74.59 49.95 -63.83 49.95 -50.62 C 49.95 -37.3 39.18 -26.53 25.86 -26.53 Z" stroke-linecap="round" />
</g>
</g>
</g>
</svg>